<?xml version="1.0" encoding="utf-8"?>
<!-- Generator: Adobe Illustrator 24.3.0, SVG Export Plug-In . SVG Version: 6.00 Build 0)  -->
<svg version="1.1" id="Layer_1" xmlns="http://www.w3.org/2000/svg" xmlns:xlink="http://www.w3.org/1999/xlink" x="0px" y="0px"
	 viewBox="0 0 2000 2000" style="enable-background:new 0 0 2000 2000;" xml:space="preserve">
<style type="text/css">
	.st0{fill:#231F20;stroke:#FFFFFF;stroke-width:0.8262;stroke-miterlimit:10;}
	.st1{fill:none;stroke:#FFFFFF;stroke-width:40;stroke-linecap:round;stroke-linejoin:round;stroke-miterlimit:10;}
	.st2{fill:#231F20;stroke:#FFFFFF;stroke-width:30;stroke-miterlimit:10;}
	.st3{fill:none;stroke:#FFFFFF;stroke-width:30;stroke-miterlimit:10;}
</style>
<circle class="st0" cx="1000.33" cy="1000.21" r="803.85"/>
<path class="st1" d="M1738.79,1002.23c0,76.58-11.57,150.45-33.07,219.97c-93.78,303.42-376.52,523.85-710.75,523.85
	S378,1525.62,284.22,1222.21c-21.5-69.52-33.07-143.4-33.07-219.97"/>
<path class="st1" d="M287.22,772.77c96.7-298.51,377.02-514.35,707.75-514.35s611.05,215.84,707.75,514.35"/>
<circle class="st2" cx="1713.76" cy="804.56" r="31.79"/>
<circle class="st2" cx="1738.79" cy="970.44" r="31.79"/>
<circle class="st2" cx="277.47" cy="806.46" r="31.79"/>
<path class="st1" d="M374.64,1414.29c88.31-208.37,176.63-416.74,264.94-625.11c82.72,260.46,165.45,520.93,248.17,781.39
	c87.58-179.52,175.15-359.04,262.73-538.56c47.57-97.51,260.23-509.46,307.8-606.97"/>
<circle class="st3" cx="254.43" cy="961.37" r="31.79"/>
</svg>
